HIERARCHY
ROOT Hips
{
	OFFSET 0.00000 0.00000 0.00000
	CHANNELS 6 Xposition Yposition Zposition Zrotation Yrotation Xrotation 
	JOINT LHipJoint
	{
		OFFSET 0 0 0
		CHANNELS 3 Zrotation Yrotation Xrotation
		JOINT LeftUpLeg
		{
			OFFSET 1.37590 -1.78394 0.89329
			CHANNELS 3 Zrotation Yrotation Xrotation
			JOINT LeftLeg
			{
				OFFSET 2.47928 -6.81178 0.00000
				CHANNELS 3 Zrotation Yrotation Xrotation
				JOINT LeftFoot
				{
					OFFSET 2.63345 -7.23535 0.00000
					CHANNELS 3 Zrotation Yrotation Xrotation
					JOINT LeftToeBase
					{
						OFFSET 0.23938 -0.65768 2.27012
						CHANNELS 3 Zrotation Yrotation Xrotation
						End Site
						{
							OFFSET 0.00000 -0.00000 1.18363
						}
					}
				}
			}
		}
	}
	JOINT RHipJoint
	{
		OFFSET 0 0 0
		CHANNELS 3 Zrotation Yrotation Xrotation
		JOINT RightUpLeg
		{
			OFFSET -1.33617 -1.78394 0.89329
			CHANNELS 3 Zrotation Yrotation Xrotation
			JOINT RightLeg
			{
				OFFSET -2.56922 -7.05888 0.00000
				CHANNELS 3 Zrotation Yrotation Xrotation
				JOINT RightFoot
				{
					OFFSET -2.56568 -7.04915 0.00000
					CHANNELS 3 Zrotation Yrotation Xrotation
					JOINT RightToeBase
					{
						OFFSET -0.27533 -0.75646 2.18105
						CHANNELS 3 Zrotation Yrotation Xrotation
						End Site
						{
							OFFSET -0.00000 -0.00000 1.15233
						}
					}
				}
			}
		}
	}
	JOINT LowerBack
	{
		OFFSET 0 0 0
		CHANNELS 3 Zrotation Yrotation Xrotation
		JOINT Spine
		{
			OFFSET 0.06190 2.15152 -0.00935
			CHANNELS 3 Zrotation Yrotation Xrotation
			JOINT Spine1
			{
				OFFSET 0.06334 2.15332 0.00872
				CHANNELS 3 Zrotation Yrotation Xrotation
				JOINT Neck
				{
					OFFSET 0 0 0
					CHANNELS 3 Zrotation Yrotation Xrotation
					JOINT Neck1
					{
						OFFSET -0.04202 1.66908 0.23524
						CHANNELS 3 Zrotation Yrotation Xrotation
						JOINT Head
						{
							OFFSET 0.07510 1.69357 -0.24440
							CHANNELS 3 Zrotation Yrotation Xrotation
							End Site
							{
								OFFSET 0.02556 1.71719 -0.11000
							}
						}
					}
				}
				JOINT LeftShoulder
				{
					OFFSET 0 0 0
					CHANNELS 3 Zrotation Yrotation Xrotation
					JOINT LeftArm
					{
						OFFSET 3.67168 1.26306 -0.41342
						CHANNELS 3 Zrotation Yrotation Xrotation
						JOINT LeftForeArm
						{
							OFFSET 4.68510 -0.00000 -0.00000
							CHANNELS 3 Zrotation Yrotation Xrotation
							JOINT LeftHand
							{
								OFFSET 3.39626 -0.00000 -0.00000
								CHANNELS 3 Zrotation Yrotation Xrotation
								JOINT LeftFingerBase
								{
									OFFSET 0 0 0
									CHANNELS 3 Zrotation Yrotation Xrotation
									JOINT LeftHandIndex1
									{
										OFFSET 0.48608 -0.00000 -0.00000
										CHANNELS 3 Zrotation Yrotation Xrotation
										End Site
										{
											OFFSET 0.39189 -0.00000 -0.00000
										}
									}
								}
								JOINT LThumb
								{
									OFFSET 0 0 0
									CHANNELS 3 Zrotation Yrotation Xrotation
									End Site
									{
										OFFSET 0.39787 -0.00000 0.39787
									}
								}
							}
						}
					}
				}
				JOINT RightShoulder
				{
					OFFSET 0 0 0
					CHANNELS 3 Zrotation Yrotation Xrotation
					JOINT RightArm
					{
						OFFSET -3.04136 1.42992 -0.76390
						CHANNELS 3 Zrotation Yrotation Xrotation
						JOINT RightForeArm
						{
							OFFSET -5.55576 -0.00000 -0.00000
							CHANNELS 3 Zrotation Yrotation Xrotation
							JOINT RightHand
							{
								OFFSET -3.32774 -0.00000 -0.00000
								CHANNELS 3 Zrotation Yrotation Xrotation
								JOINT RightFingerBase
								{
									OFFSET 0 0 0
									CHANNELS 3 Zrotation Yrotation Xrotation
									JOINT RightHandIndex1
									{
										OFFSET -0.50763 -0.00000 -0.00000
										CHANNELS 3 Zrotation Yrotation Xrotation
										End Site
										{
											OFFSET -0.40926 -0.00000 -0.00000
										}
									}
								}
								JOINT RThumb
								{
									OFFSET 0 0 0
									CHANNELS 3 Zrotation Yrotation Xrotation
									End Site
									{
										OFFSET -0.41551 -0.00000 0.41551
									}
								}
							}
						}
					}
				}
			}
		}
	}
}
MOTION
Frames: 14
Frame Time: 0.0526316
0.00 0.00 0.00 0 0 0 0 0 0 -21 0 0 0 0 0 0 0 0 0 0 0 0 0 0 21 0 0 0 0 0 0 0 0 0 0 0 0 0 0 0 0 0 0 0 0 0 0 -16 0 0 21 0 0 11 0 0 0 -8 0 0 0 0 0 0 0 0 0 0 0 0 0 0 0 0 0 0 0 0 8 0 0 0 0 0 0 0 0 0 0 0 0 0 0 0 0 0
0.00 0.00 0.00 -125.7210 -81.9393 137.5060 0.0000 0.0000 0.0000 -10.3418 -6.7936 -15.5714 1.6488 8.0928 22.9962 0.6250 1.8823 -15.7318 0.0384 -1.2640 -3.4756 0.0000 0.0000 0.0000 28.7454 6.7977 -13.3505 -1.1400 -6.7805 19.0668 -0.6883 -5.8689 -18.8917 -0.0344 -1.1966 3.2899 4.2159 -1.5368 -4.6700 2.7906 -2.3188 -2.9136 0.4105 -1.2383 -0.4308 -10.0716 -7.3023 -17.6434 8.0886 -8.9919 15.3261 3.1947 -4.0819 8.5039 0.0000 -0.0000 0.0000 -87.4566 3.0352 11.1804 11.5476 -19.1227 -1.9515 -0.0000 -0.0000 24.2121 11.5472 20.7051 4.1316 -7.1250 0.0000 -0.0000 -16.8960 50.3013 -2.2641 0.0000 -0.0000 0.0000 85.2900 -0.7151 18.6094 -12.6497 20.7719 -2.3276 0.0000 0.0000 13.0240 -13.1418 -24.8371 5.6011 7.1250 -0.0000 -0.0000 17.3367 -54.5535 -4.1633
0.00 0.00 0.00 -119.4230 -80.3091 131.0490 0.0000 0.0000 0.0000 -6.9177 -6.2179 -26.9304 4.4811 12.7744 38.5299 0.8835 1.0971 -18.1880 0.2194 -3.0150 -8.3204 0.0000 0.0000 0.0000 31.7672 5.1443 -11.4866 -1.0896 -6.6338 18.6348 -1.0195 -3.6475 -20.7180 -0.0264 1.0484 -2.8821 6.1959 -1.2335 -3.3732 3.2754 -1.9150 -2.3443 -0.1487 -1.0550 -0.6122 -10.0190 -7.3977 -17.4047 8.5008 -9.0425 12.8787 3.3260 -4.0751 7.6705 0.0000 -0.0000 0.0000 -87.8506 4.3548 16.6996 14.9272 -24.0446 -3.1962 -0.0000 -0.0000 17.5776 12.9831 20.3011 4.5735 -7.1250 0.0000 -0.0000 -15.3659 50.1328 -1.9853 0.0000 -0.0000 0.0000 84.7858 -1.8713 20.5513 -13.6484 22.2298 -2.6936 0.0000 0.0000 12.1607 -13.5473 -25.1390 5.8445 7.1250 -0.0000 -0.0000 17.0952 -54.9209 -4.2576
0.00 0.00 0.00 -147.6970 -76.6369 158.7760 0.0000 0.0000 0.0000 -4.0472 -10.7873 -34.7899 1.6186 8.0218 22.7803 -0.0627 4.9583 -4.1617 0.0566 -1.5348 -4.2216 0.0000 0.0000 0.0000 26.9049 4.4895 -1.2492 -3.3753 -11.2792 33.2273 -0.1066 -3.4827 -8.4484 -0.1785 2.7214 -7.5040 4.9624 -0.2626 -0.9673 1.8241 -0.3750 -2.2849 -0.9015 -0.2816 -1.8261 -8.6331 -6.6310 -19.9731 8.1601 -7.8400 9.3368 3.1106 -3.4359 6.7502 -0.0000 0.0000 0.0000 -88.6073 -16.0431 53.8764 46.8996 -51.6659 -23.7197 -0.0000 0.0000 -1.2703 15.6876 26.2292 7.0757 -7.1250 0.0000 -0.0000 -15.5275 56.4001 -4.4149 -0.0000 0.0000 0.0000 82.8079 14.7677 48.5171 -63.2840 57.1234 -37.0867 0.0000 0.0000 16.1832 -29.5872 -23.3697 12.6923 7.1250 -0.0000 -0.0000 -0.4774 -56.4021 0.1335
0.00 0.00 0.00 -153.2270 -79.5484 163.2000 0.0000 0.0000 0.0000 -10.3418 -10.4399 -29.6404 1.9350 8.7293 24.9522 0.0629 1.3662 -5.4492 0.0005 0.1488 0.4087 0.0000 0.0000 0.0000 22.8798 5.4424 -10.5936 -7.1025 -15.4176 49.2611 0.2575 -9.3827 -0.4505 -0.0002 0.0931 -0.2559 2.2963 -1.1018 0.4455 1.0630 -1.4356 -1.9183 -0.1606 -0.7579 -2.2462 -8.5515 -6.6549 -20.0238 8.6729 -7.9243 8.3943 3.2565 -3.4458 6.4827 -0.0000 0.0000 0.0000 -91.8947 -28.7473 60.9158 51.7515 -53.6780 -27.5792 -0.0000 0.0000 -5.2327 15.2437 27.0501 7.0647 -7.1250 0.0000 -0.0000 -16.4600 57.1030 -4.9723 -0.0000 0.0000 0.0000 83.0068 24.7586 49.2174 -75.8528 59.2301 -47.7798 0.0000 0.0000 19.0995 -35.6520 -23.6322 16.0421 7.1250 -0.0000 -0.0000 -7.3934 -58.1289 2.3835
0.00 0.00 0.00 -190.1290 -85.3147 201.3020 0.0000 0.0000 0.0000 -21.7409 -8.0795 -15.1355 1.6560 8.1094 23.0469 0.6644 -4.4745 -14.5335 0.0002 0.0962 0.2644 0.0000 0.0000 0.0000 14.8463 9.5170 -40.2951 -4.1055 -12.2995 36.7999 0.5167 -13.1896 -9.0132 -0.0871 -1.9037 5.2396 -2.5776 -2.2455 6.0332 -0.9344 -3.2169 0.0825 0.7583 -1.5729 -3.2073 -10.3963 -7.0976 -17.5822 11.0590 -8.3669 4.4158 4.3291 -3.6749 5.0764 -0.0000 -0.0000 0.0000 -107.4535 -52.1728 71.2988 59.6913 -56.2271 -34.0844 -0.0000 0.0000 -20.6586 16.9465 32.8518 9.3859 -7.1250 0.0000 -0.0000 -18.8543 63.0322 -8.4080 -0.0000 -0.0000 0.0000 82.0897 50.6301 48.1723 -85.9106 59.9367 -56.4592 0.0000 0.0000 31.8465 -49.0242 -24.4964 25.5194 7.1250 -0.0000 -0.0000 -25.7686 -62.9449 11.6260
0.00 0.00 0.00 -198.2500 -86.9431 210.7660 0.0000 0.0000 0.0000 -21.1308 -7.0246 -13.1338 3.2655 11.1129 32.6615 0.7466 -7.9586 -15.5557 0.3322 -3.7044 -10.2466 0.0000 0.0000 0.0000 13.7794 11.9986 -42.0977 -1.2775 -7.1630 20.1991 0.6451 -14.1023 -4.0369 -0.2838 -3.4259 9.4668 -1.1303 -2.0958 6.1862 -0.4285 -2.9064 2.2826 0.3957 -1.4726 -1.0807 -10.7058 -7.1255 -16.1534 11.9141 -8.4070 1.9154 4.6926 -3.7438 4.1462 0.0000 0.0000 0.0000 -107.3826 -42.7790 66.3481 58.9354 -56.0195 -33.4568 -0.0000 0.0000 -40.2868 17.2743 45.4156 12.4883 -7.1250 0.0000 -0.0000 -37.9488 73.8175 -26.8132 0.0000 0.0000 0.0000 83.7843 44.6859 56.7521 -75.2396 59.1606 -47.2532 0.0000 0.0000 35.6994 -51.7628 -27.1107 30.0423 7.1250 -0.0000 -0.0000 -32.1664 -66.9191 17.7302
0.00 0.00 0.00 -152.8170 -86.7166 164.9850 0.0000 0.0000 0.0000 -15.9051 -7.9620 -18.0163 6.8157 15.1747 48.1737 0.0511 -7.9580 -6.5910 0.7361 -5.4812 -15.2862 0.0000 0.0000 0.0000 18.7584 13.2324 -38.1648 -1.8272 -8.4964 24.2322 0.4501 -11.8966 -2.6942 -1.0598 -6.5455 18.3757 1.1109 -1.9764 6.2182 0.9949 -2.6417 3.2801 0.5623 -1.3492 -0.1085 -10.1935 -7.1448 -15.9919 12.5325 -8.5550 0.9863 4.8009 -3.8153 3.8706 0.0000 0.0000 0.0000 -102.0180 -28.8203 62.8605 59.2412 -56.1043 -33.7104 -0.0000 0.0000 -45.6687 15.6183 48.7704 11.8731 -7.1250 0.0000 -0.0000 -49.3290 75.3218 -37.0934 0.0000 0.0000 0.0000 82.9975 30.3231 61.7378 -70.0661 58.4440 -42.8269 0.0000 0.0000 32.0166 -45.9451 -26.4932 24.7524 7.1250 -0.0000 -0.0000 -21.5694 -64.3667 10.3461
0.00 0.00 0.00 -144.7630 -80.7031 155.0780 0.0000 0.0000 0.0000 -9.5965 -8.6028 -28.1625 8.6374 16.5686 54.8275 0.1176 -2.6603 -6.1040 0.5445 -4.7277 -13.1336 0.0000 0.0000 0.0000 28.1272 12.6762 -22.2534 -1.6827 -8.1713 23.2357 0.0302 -6.5507 -8.5345 -1.2376 -7.0545 19.8771 3.1143 -1.9106 4.0971 2.2434 -2.4820 2.0074 0.6639 -1.2579 -0.2637 -9.7401 -6.5541 -16.5320 11.8478 -8.0107 5.1586 4.5352 -3.4566 5.1221 0.0000 -0.0000 0.0000 -97.4631 -23.4626 67.4948 62.4999 -56.9401 -36.4288 -0.0000 0.0000 -42.7024 7.7803 48.5628 5.8485 -7.1250 0.0000 -0.0000 -55.1044 72.2925 -38.8604 0.0000 -0.0000 0.0000 69.3278 20.7793 58.2468 -88.3943 59.9903 -58.6095 0.0000 0.0000 27.4081 -33.4409 -18.2953 11.7121 7.1250 -0.0000 -0.0000 -5.4703 -51.5137 0.8798
0.00 0.00 0.00 -148.8250 -77.2925 158.2880 0.0000 0.0000 0.0000 -7.6977 -8.0327 -30.8424 6.4161 14.8198 46.6296 0.2238 0.4249 -9.0989 0.5334 -4.6798 -12.9975 0.0000 0.0000 0.0000 30.9566 11.2344 -14.1387 -1.3148 -7.2627 20.4961 -0.2023 -4.5474 -11.3997 -0.9526 -6.2154 17.4107 3.9239 -1.8882 2.3821 2.5661 -2.4647 0.8639 0.5052 -1.2536 -0.4985 -9.6708 -5.9696 -17.1055 10.8788 -7.2408 7.7596 4.2900 -3.0735 5.8943 0.0000 0.0000 0.0000 -92.7282 -26.1505 66.9897 66.2938 -57.7662 -39.6238 -0.0000 0.0000 -34.7975 1.3361 41.6623 0.8882 -7.1250 0.0000 -0.0000 -46.2622 65.9249 -25.6908 0.0000 0.0000 0.0000 56.3496 22.6586 49.8509 -104.4717 59.1937 -72.4989 0.0000 0.0000 23.8713 -31.2529 -15.7813 9.3723 7.1250 -0.0000 -0.0000 -3.4725 -48.2426 0.2781
0.00 0.00 0.00 -150.4920 -74.4037 159.6270 0.0000 0.0000 0.0000 -5.5360 -7.7190 -32.1760 3.5824 11.5830 34.2723 0.1904 3.0186 -9.9273 0.5864 -4.9032 -13.6327 0.0000 0.0000 0.0000 32.8661 9.4177 -7.3049 -1.0711 -6.5791 18.4742 -0.4507 -3.2224 -14.2730 -0.5880 -4.9097 13.6513 5.1638 -1.8514 0.6589 2.8813 -2.4645 -0.3362 0.1045 -1.2778 -0.8036 -9.3238 -5.4107 -17.9963 9.6582 -6.4476 9.8715 3.9232 -2.7145 6.5656 -0.0000 -0.0000 0.0000 -84.8438 -27.3580 60.7333 68.1723 -58.1209 -41.2159 -0.0000 0.0000 -20.8348 0.6990 30.7776 0.3577 -7.1250 0.0000 -0.0000 -33.7020 57.3932 -11.0687 -0.0000 -0.0000 0.0000 39.7258 25.7258 33.5732 -120.7788 56.0988 -86.3061 0.0000 0.0000 19.9046 -32.9728 -17.0610 10.7763 7.1250 -0.0000 -0.0000 -5.0870 -50.0049 0.6291
0.00 0.00 0.00 -150.8110 -72.1181 160.0860 0.0000 0.0000 0.0000 -3.4419 -8.1917 -32.4264 1.3689 7.4047 20.9200 0.0198 5.9228 -8.9836 0.5881 -4.9099 -13.6518 0.0000 0.0000 0.0000 33.7630 6.7354 -1.4612 -1.1172 -6.7145 18.8724 -0.7711 -1.6674 -17.2717 -0.1388 -2.4013 6.6161 6.8903 -1.6293 -1.0018 3.0637 -2.2559 -1.7906 -0.6890 -1.2406 -1.4246 -8.1638 -4.9237 -19.3730 7.6674 -5.7680 12.0320 3.1530 -2.4553 7.3221 0.0000 -0.0000 0.0000 -74.9937 -22.6726 48.4476 64.0682 -57.3000 -37.7459 -0.0000 0.0000 -5.1142 7.5775 23.8853 3.0832 -7.1250 0.0000 -0.0000 -22.2333 52.6525 -4.3610 0.0000 -0.0000 0.0000 17.7074 28.0115 2.4186 -135.1248 50.7072 -97.8579 0.0000 0.0000 17.0016 -38.5600 -23.2923 17.4954 7.1250 -0.0000 -0.0000 -10.9510 -58.4791 3.6379
0.00 0.00 0.00 -150.1700 -72.0065 159.2060 0.0000 0.0000 0.0000 -3.6895 -10.5661 -31.7432 0.9035 6.0575 16.9513 -0.0825 6.2273 -6.0993 0.3430 -3.7633 -10.4117 0.0000 0.0000 0.0000 32.5630 3.5491 0.6406 -1.9263 -8.7109 24.8950 -0.7711 0.3402 -16.4840 -0.0120 0.7087 -1.9477 7.7719 -1.3025 -1.6949 2.8935 -1.8457 -3.0384 -1.3453 -1.1188 -2.3410 -6.7365 -4.9629 -20.5464 5.6996 -5.8662 13.8830 2.2393 -2.5845 8.0290 0.0000 -0.0000 0.0000 -70.6256 -13.3523 38.4928 53.8764 -54.4441 -29.2997 -0.0000 -0.0000 1.7687 14.1177 25.1926 6.1108 -7.1250 0.0000 -0.0000 -16.5522 55.0826 -4.1825 0.0000 -0.0000 0.0000 -1.1754 28.4216 -35.4239 -142.4083 46.5766 -103.3316 0.0000 0.0000 17.2889 -47.5024 -30.4061 28.9157 7.1250 -0.0000 -0.0000 -25.7009 -69.3812 15.3600
0.00 0.00 0.00 -148.7160 -74.5132 156.3340 0.0000 0.0000 0.0000 -8.0234 -13.1989 -28.7153 1.4812 7.6896 21.7752 0.0040 1.7559 -2.8530 0.0137 -0.7547 -2.0740 0.0000 0.0000 0.0000 29.2971 0.6091 -3.3872 -4.7876 -13.1405 39.8967 -0.0484 -2.6913 -6.0212 -0.0355 1.2153 -3.3415 6.6357 -0.9098 -1.1102 2.2164 -1.2203 -3.8535 -1.3938 -0.8300 -3.4531 -6.5062 -6.2505 -20.5500 5.1044 -7.6270 14.8712 1.7521 -3.4610 8.4418 0.0000 -0.0000 0.0000 -71.8485 -5.2003 31.3315 42.6998 -49.5905 -20.4719 -0.0000 -0.0000 0.6443 18.1049 29.2184 9.0676 -7.1250 0.0000 -0.0000 -14.7963 59.8415 -5.4317 0.0000 -0.0000 0.0000 -11.9604 32.0576 -68.0297 -144.6090 45.0893 -104.9104 0.0000 0.0000 21.7337 -58.2323 -33.5581 41.7543 7.1250 -0.0000 -0.0000 -58.5540 -75.2485 44.8343
